<svg
  xmlns="http://www.w3.org/2000/svg"
  xmlns:xlink="http://www.w3.org/1999/xlink"
  fill="none"
  version="1.1"
  width="18"
  height="18"
  viewBox="0 0 18 18"
>
  <defs>
    <clipPath id="master_svg0_2_03823">
      <rect x="18" y="0" width="18" height="18" rx="0" />
    </clipPath>
  </defs>
  <g>
    <g transform="matrix(0,1,-1,0,18,-18)" clip-path="url(#master_svg0_2_03823)">
      <g>
        <path
          d="M22.00512421,7.24487579Q21.90668732,7.14643884,21.85341364,7.01782483Q21.80013996,6.88921081,21.80013996,6.75Q21.80014002,6.681069806,21.81358761,6.61346409Q21.82703525,6.54585837,21.8534137,6.48217517Q21.87979209,6.41849196,21.91808772,6.36117861Q21.95638323,6.30386525,22.00512424,6.25512424Q22.05386525,6.20638323,22.11117864,6.16808766Q22.16849196,6.1297920900000005,22.23217517,6.1034137Q22.29585837,6.07703525,22.36346409,6.06358761Q22.431069806,6.05014002,22.5,6.05013996Q22.63921081,6.05013996,22.76782483,6.10341364Q22.89643884,6.15668732,22.99487579,6.25512421L22.99497476,6.25502524L27,10.2600498L31.005024900000002,6.25502524L31.0051241,6.25512454Q31.1035614,6.1566875,31.2321749,6.1034137600000005Q31.3607883,6.05014002,31.5,6.05013996Q31.568929699999998,6.05014002,31.6365347,6.06358761Q31.7041397,6.07703525,31.767823200000002,6.1034137Q31.8315067,6.1297920900000005,31.8888197,6.16808772Q31.9461327,6.20638323,31.994875,6.25512424Q32.0436153,6.30386525,32.0819111,6.36117864Q32.1202068,6.41849196,32.1465855,6.48217517Q32.1729641,6.54585837,32.186411899999996,6.61346409Q32.199859599999996,6.681069806,32.199859599999996,6.75Q32.199859599999996,6.8892107,32.1465855,7.01782465Q32.0933123,7.14643857,31.9948759,7.24487546L31.994975099999998,7.24497476L27.494975099999998,11.7449751Q27.4462242,11.793726,27.3888988,11.832028399999999Q27.331574,11.870331799999999,27.2678781,11.8967152Q27.2041821,11.923099,27.1365633,11.9365492Q27.068944000000002,11.9499998,27,11.9499998Q26.931055999999998,11.9499998,26.8634362,11.9365492Q26.7958169,11.923099,26.732121,11.8967152Q26.6684251,11.870331799999999,26.6111002,11.832028900000001Q26.5537758,11.793726,26.505024900000002,11.7449751L22.00502524,7.24497476L22.00512421,7.24487579Z"
          fill-rule="evenodd"
          fill="currentColor"
          fill-opacity="1"
        />
      </g>
    </g>
  </g>
</svg>
