<svg
  xmlns="http://www.w3.org/2000/svg"
  xmlns:xlink="http://www.w3.org/1999/xlink"
  fill="none"
  version="1.1"
  width="40"
  height="40"
  viewBox="0 0 40 40"
>
  <g>
    <path
      d="M20,40C8.9542189,40,0,31.04578,0,20C0,8.954217,8.9542189,0,20,0C31.04578,0,40,8.9542189,40,20C40,31.04578,31.04578,40,20,40ZM22.130665,17.928907L22.060429,17.860001C21.926191,17.72595,21.782576,17.601639,21.630663,17.488007L20.245779,18.872461C20.408907,18.968006,20.561327,19.083124,20.699102,19.2209L20.771994,19.289764C21.659042,20.178436,21.659042,21.617538,20.771994,22.506208L16.986677,26.290663C16.097502,27.176497,14.65941,27.176497,13.770232,26.290663L13.69867,26.22043C12.811794,25.332218,12.811794,23.893562,13.69867,23.005354L15.410234,21.29332C15.11605,20.564863,14.971691,19.784592,14.985781,18.999104L12.336875,21.644415C10.702656,23.278204,10.702656,25.951096,12.336875,27.583982L12.406679,27.654217C14.040898,29.286638,16.712461,29.286638,18.346209,27.654217L22.130661,23.868435C23.761795,22.234646,23.761795,19.561794,22.130665,17.928907ZM27.65332,12.406641L27.582228,12.336445C25.949335,10.702657,23.276443,10.702657,21.642656,12.336445L17.858204,16.122227C16.224455,17.754648,16.224455,20.427538,17.858204,22.061794L17.928438,22.130665C18.065351,22.264454,18.210663,22.387539,18.358204,22.502655L19.743124,21.116875C19.578176,21.020332,19.42614,20.903252,19.290663,20.768438L19.220428,20.699568C18.333221,19.810442,18.333221,18.37092,19.220428,17.481794L23.005779,13.697344C23.893482,12.81005,25.332294,12.81005,26.219999,13.697344L26.29023,13.767539C27.17728,14.656209,27.17728,16.095314,26.29023,16.983984L24.580856,18.696014C24.878199,19.430233,25.018202,20.212032,25.004448,20.991564L27.652456,18.344885C29.286207,16.712461,29.286207,14.039572,27.653316,12.40711L27.65332,12.406641Z"
      fill="#C2B497"
      fill-opacity="1"
      style="mix-blend-mode: passthrough"
    />
  </g>
</svg>
