<svg
  xmlns="http://www.w3.org/2000/svg"
  xmlns:xlink="http://www.w3.org/1999/xlink"
  fill="none"
  version="1.1"
  width="40"
  height="40"
  viewBox="0 0 40 40"
>
  <g>
    <path
      d="M20,0C8.9230766,0,0,8.9230766,0,20C0,31.076923,8.9230766,40,20,40C31.076923,40,40,31.076923,40,20C40,8.9230776,31.076923,0,20,0ZM27.69231,27.384617C25.846155,29.384617,23.230772,30.461538,20.46154,30.307693L20.153849,30.307693C14.46154,30.307693,9.8461561,25.538464,10.000003,19.846155C10.000003,14.153847,14.769233,9.5384626,20.461542,9.6923094C23.076925,9.6923094,25.69231,10.615386,27.538465,12.615386L25.538465,14.615386C24.153849,13.230769,22.307695,12.615386,20.461542,12.615386C16.307695,12.615386,12.92308,16,12.92308,20.153847C12.92308,24.307693,16.307697,27.69231,20.461542,27.69231C22.461542,27.846155,24.307695,27.076925,25.69231,25.69231C26.615387,24.769232,27.076925,23.384619,27.230772,22.153849L20.46154,22.153849L20.46154,19.384619L30,19.384619C30.153845,20.000002,30.153845,20.615387,30.153845,21.076925C30.153845,23.230772,29.230768,25.69231,27.69231,27.384617Z"
      fill="#B0B0B0"
      fill-opacity="1"
      style="mix-blend-mode: passthrough"
    />
  </g>
</svg>
