<svg
  xmlns="http://www.w3.org/2000/svg"
  xmlns:xlink="http://www.w3.org/1999/xlink"
  fill="none"
  version="1.1"
  width="32"
  height="32.000003814697266"
  viewBox="0 0 32 32.000003814697266"
>
  <defs>
    <clipPath id="master_svg0_2_7228">
      <rect x="0" y="0" width="32" height="32.000003814697266" rx="0" />
    </clipPath>
  </defs>
  <g clip-path="url(#master_svg0_2_7228)">
    <g>
      <path
        d="M10.4690050765625,28.64465289453125C9.3466715765625,29.34198989453125,7.8790039765625,28.98132289453125,7.1973380765625,27.84598689453125C6.8741888765625,27.30693589453125,6.7737540765625,26.66319489453125,6.9173378765625,26.05132089453125L8.3700041765625,19.85632089453125C8.4052533765625,19.70940789453125,8.3569855765625,19.55500389453125,8.2443384765625,19.45432089453125L3.4893378565625,15.31098789453125C2.5016711365625,14.45098789453125,2.3876711765625,12.94698619453125,3.2320044665625,11.94432069453125C3.6377979565625003,11.46115299453125,4.2198389765624995,11.16017059453125,4.8486716765625,11.10832119453125L11.0890044765625,10.59998699453125C11.2250051765625,10.58865359453125,11.3466720765625,10.49898669453125,11.4023380765625,10.362654194531249L13.8066709765625,4.48231939453125C14.3076719765625,3.25731906453125,15.7010059765625,2.67231896453125,16.916671976562498,3.18665255453125C17.496448976562498,3.43304607453125,17.9551739765625,3.89884263453125,18.1926729765625,4.48231939453125L20.5970039765625,10.36231999453125C20.6526719765625,10.49898669453125,20.7743399765625,10.58898689453125,20.9103369765625,10.59998799453125L27.1513409765625,11.10865499453125C28.4600069765625,11.21532149453125,29.4290069765625,12.37298869453125,29.3253379765625,13.68732289453125C29.2766419765625,14.31453889453125,28.9840529765625,14.89768589453125,28.5103399765625,15.31165589453125L23.7553389765625,19.45499189453125C23.6446709765625,19.55132289453125,23.5946709765625,19.70732289453125,23.6296689765625,19.85665689453125L25.0823349765625,26.05165889453125C25.3830049765625,27.33332589453125,24.6023369765625,28.62465889453125,23.3280029765625,28.93366089453125C22.7143249765625,29.08259989453125,22.0665339765625,28.97857689453125,21.5303379765625,28.64499289453125L16.1873369765625,25.32499089453125C16.072590976562502,25.25296989453125,15.9267489765625,25.25296989453125,15.8120029765625,25.32499089453125L10.468669376562499,28.64499289453125L10.4690050765625,28.64465289453125Z"
        fill="currentColor"
        fill-opacity="1"
        style="mix-blend-mode: passthrough"
      />
    </g>
  </g>
</svg>
