<svg
  xmlns="http://www.w3.org/2000/svg"
  xmlns:xlink="http://www.w3.org/1999/xlink"
  fill="none"
  version="1.1"
  width="12"
  height="12"
  viewBox="0 0 12 12"
>
  <defs>
    <clipPath id="master_svg0_17_2963"><rect x="0" y="0" width="12" height="12" rx="0" /></clipPath>
  </defs>
  <g clip-path="url(#master_svg0_17_2963)">
    <g>
      <path
        d="M10.046875,8.249999500000001L8.8790746,8.249999500000001L8.8790746,8.250100100000001Q8.829838800000001,8.250100100000001,8.7815485,8.259705499999999Q8.7332587,8.2693105,8.6877708,8.2881517Q8.6422825,8.3069935,8.6013451,8.3343472Q8.5604067,8.361701499999999,8.5255919,8.3965168Q8.490776499999999,8.4313316,8.463422300000001,8.4722691Q8.436068500000001,8.513207399999999,8.4172268,8.558695799999999Q8.398385000000001,8.604184199999999,8.3887796,8.6524739Q8.3791747,8.7007637,8.379175199999999,8.75Q8.3791747,8.7992353,8.3887801,8.8475251Q8.398385000000001,8.895814900000001,8.4172268,8.941302799999999Q8.436068500000001,8.9867907,8.4634228,9.0277286Q8.490776499999999,9.068666499999999,8.5255919,9.1034818Q8.5604067,9.1382966,8.6013451,9.1656504Q8.642282999999999,9.1930046,8.6877708,9.211846399999999Q8.733259199999999,9.2306881,8.781549,9.2402935Q8.829838800000001,9.2498994,8.8790751,9.249899899999999L8.8790746,9.25L10.046875,9.25Q10.5452256,9.25,10.8976121,8.897613Q11.25,8.5452256,11.25,8.046875499999999L11.25,1.953125Q11.25,1.45477508,10.897613,1.10238759Q10.5452261,0.7500000600000001,10.046875499999999,0.7500000600000001L3.953125,0.75Q3.45477451,0.75,3.10238729,1.10238726Q2.75000006,1.45477447,2.75000006,1.953125L2.75,3.1079L2.75009999,3.1079Q2.75010002,3.1571358,2.7597054500000002,3.2054255Q2.76931089,3.2537153,2.78815264,3.2992032Q2.80699438,3.3446913,2.83434835,3.3856292Q2.86170232,3.4265676,2.89651734,3.4613824Q2.93133235,3.4961975,2.97227046,3.5235515Q3.01320857,3.5509052,3.05869657,3.569747Q3.10418455,3.5885887,3.152474351,3.5981944Q3.200764146,3.6078,3.25,3.6078Q3.299235854,3.6078,3.347525649,3.5981944Q3.39581545,3.5885887,3.44130343,3.569747Q3.48679143,3.5509052,3.52772954,3.5235515Q3.56866765,3.4961977,3.60348266,3.4613826Q3.63829768,3.4265676,3.66565162,3.3856294Q3.69300559,3.3446913,3.71184734,3.2992032Q3.73068911,3.2537153,3.7402945499999998,3.2054256Q3.74989998,3.1571358,3.74990001,3.1079L3.75,3.1079L3.75000006,1.953125Q3.75000006,1.75,3.953125,1.75L10.046875499999999,1.75000006Q10.249999500000001,1.75000006,10.249999500000001,1.953125L10.249999500000001,8.046875499999999Q10.249999500000001,8.249999500000001,10.046875,8.249999500000001Z"
        fill-rule="evenodd"
        fill="currentColor"
        fill-opacity="1"
        style="mix-blend-mode: passthrough"
      />
    </g>
    <g>
      <path
        d="M9.25,10.046875499999999L9.25,3.953125Q9.25,3.45477508,8.897613,3.10238759Q8.5452261,2.75000006,8.046875499999999,2.75000006L1.953125,2.75Q1.45477451,2.75,1.10238729,3.10238726Q0.7500000600000001,3.45477447,0.7500000600000001,3.953125L0.75,10.046875Q0.75,10.5452261,1.10238749,10.897613Q1.45477477,11.25,1.953125,11.25L8.046875,11.25Q8.5452256,11.25,8.8976121,10.897613Q9.25,10.5452256,9.25,10.046875499999999ZM8.046875499999999,3.75000006Q8.249999500000001,3.75000006,8.249999500000001,3.953125L8.249999500000001,10.046875499999999Q8.249999500000001,10.249999500000001,8.046875,10.249999500000001L1.953125,10.249999500000001Q1.75,10.249999500000001,1.75,10.046875L1.75000006,3.953125Q1.75000006,3.75,1.953125,3.75L8.046875499999999,3.75000006Z"
        fill-rule="evenodd"
        fill="currentColor"
        fill-opacity="1"
        style="mix-blend-mode: passthrough"
      />
    </g>
  </g>
</svg>
