<svg xmlns="http://www.w3.org/2000/svg" width="10" height="10" viewBox="0 0 10 10" fill="none">
  <path d="M-0.707107 0.707107Q-0.847759 0.566455 -0.92388 0.382683Q-1 0.198912 -1 0Q-1 -0.0984914 -0.980785 -0.19509Q-0.96157 -0.291689 -0.923879 -0.382683Q-0.886188 -0.473678 -0.83147 -0.55557Q-0.776751 -0.637463 -0.707107 -0.707107Q-0.637463 -0.776751 -0.55557 -0.83147Q-0.473678 -0.886188 -0.382683 -0.923879Q-0.291689 -0.96157 -0.19509 -0.980785Q-0.0984914 -1 0 -1Q0.198912 -1 0.382683 -0.92388Q0.566455 -0.847759 0.707107 -0.707107L10.7071 9.29289Q10.8478 9.43355 10.9239 9.61732Q11 9.80109 11 10Q11 10.0985 10.9808 10.1951Q10.9616 10.2917 10.9239 10.3827Q10.8862 10.4737 10.8315 10.5556Q10.7767 10.6375 10.7071 10.7071Q10.6375 10.7767 10.5556 10.8315Q10.4737 10.8862 10.3827 10.9239Q10.2917 10.9616 10.1951 10.9808Q10.0985 11 10 11Q9.80109 11 9.61732 10.9239Q9.43355 10.8478 9.29289 10.7071L-0.707107 0.707107L-0.707107 0.707107Z" fill="#9C9C9C"/>
  <path d="M10.7071 0.707107Q10.8478 0.566455 10.9239 0.382683Q11 0.198912 11 0Q11 -0.0984914 10.9808 -0.19509Q10.9616 -0.291689 10.9239 -0.382683Q10.8862 -0.473678 10.8315 -0.55557Q10.7767 -0.637463 10.7071 -0.707107Q10.6375 -0.776751 10.5556 -0.83147Q10.4737 -0.886188 10.3827 -0.923879Q10.2917 -0.96157 10.1951 -0.980785Q10.0985 -1 10 -1Q9.80109 -1 9.61732 -0.92388Q9.43355 -0.847759 9.29289 -0.707107L9.29258 -0.706793L-0.706793 9.29258L-0.707107 9.29289Q-0.847759 9.43355 -0.923879 9.61732Q-1 9.80109 -1 10Q-1 10.0985 -0.980785 10.1951Q-0.96157 10.2917 -0.923879 10.3827Q-0.886188 10.4737 -0.83147 10.5556Q-0.776751 10.6375 -0.707107 10.7071Q-0.637463 10.7767 -0.55557 10.8315Q-0.473678 10.8862 -0.382683 10.9239Q-0.291689 10.9616 -0.19509 10.9808Q-0.0984914 11 0 11Q0.198912 11 0.382683 10.9239Q0.566455 10.8478 0.707107 10.7071L0.707421 10.7068L10.7068 0.707421L10.7071 0.707107L10.7071 0.707107Z" fill="#9C9C9C"/>
</svg>

