<svg
  xmlns="http://www.w3.org/2000/svg"
  xmlns:xlink="http://www.w3.org/1999/xlink"
  fill="none"
  version="1.1"
  width="8"
  height="7"
  viewBox="0 0 8 7"
>
  <g transform="matrix(-1,0,0,-1,16,14)">
    <path
      d="M14.952488899999999,11.4746284Q14.971053099999999,11.5027633,14.9856739,11.533135900000001Q15.0002937,11.563507999999999,15.0107055,11.595568199999999Q15.0211163,11.627627799999999,15.0271297,11.6607947Q15.033142999999999,11.6939621,15.0346508,11.7276363Q15.0361586,11.7613101,15.0331326,11.794881799999999Q15.030107000000001,11.828454,15.022603,11.861316200000001Q15.0150981,11.894177899999999,15.003250600000001,11.9257355Q14.9914036,11.957292599999999,14.9754276,11.986974700000001Q14.959451699999999,12.0166559,14.939636700000001,12.0439248Q14.919821299999999,12.0711937,14.8965254,12.0955563Q14.873229,12.1199183,14.8468733,12.140933Q14.820518,12.161948200000001,14.7915807,12.1792359Q14.7626429,12.1965237,14.731647500000001,12.209770200000001Q14.7006521,12.2230177,14.668159,12.2319846Q14.6356654,12.2409511,14.6022625,12.245475299999999Q14.568859100000001,12.25,14.5351515,12.25L9.4648484,12.25Q9.4311404,12.25,9.3977374,12.245475299999999Q9.3643343,12.2409506,9.331841,12.2319841Q9.2993474,12.223016699999999,9.268351599999999,12.209769699999999Q9.2373557,12.1965227,9.2084185,12.1792355Q9.179481,12.161947699999999,9.1531259,12.140933Q9.1267707,12.1199179,9.1034749,12.0955558Q9.0801787,12.0711932,9.0603635,12.0439243Q9.0405483,12.0166559,9.0245725,11.986974700000001Q9.0085967,11.957292599999999,8.99674922,11.9257355Q8.98490179,11.894177899999999,8.97739732,11.861316200000001Q8.96989274,11.828454,8.96686691,11.794881799999999Q8.96384108,11.7613101,8.96534872,11.7276363Q8.96685636,11.6939621,8.97287017,11.6607947Q8.978883979999999,11.627627799999999,8.98929518,11.595568199999999Q8.99970627,11.563507999999999,9.0143263,11.533135399999999Q9.0289464,11.5027633,9.0475109,11.4746284L11.582662599999999,7.63249362Q11.5996807,7.60670221,11.6197448,7.58320248Q11.6398091,7.55970269,11.662614099999999,7.53885227Q11.6854188,7.51800179,11.7106175,7.50011796Q11.7358162,7.48223415,11.763025299999999,7.46758911Q11.7902343,7.45294407,11.8190396,7.4417607199999996Q11.8478446,7.4305774,11.8778076,7.42302591Q11.9077706,7.41547441,11.9384353,7.4116697Q11.969100000000001,7.40786499,12,7.40786499Q12.030899999999999,7.40786499,12.0615654,7.41166967Q12.0922298,7.41547441,12.1221929,7.42302591Q12.1521559,7.4305774,12.180961100000001,7.4417607199999996Q12.2097664,7.4529441,12.2369752,7.46758914Q12.264184,7.48223418,12.2893829,7.50011802Q12.3145819,7.51800179,12.3373871,7.53885227Q12.3601913,7.55970269,12.3802552,7.58320248Q12.4003191,7.60670221,12.417337400000001,7.63249362L14.952488899999999,11.4746284Z"
      fill="currentColor"
      fill-opacity="1"
    />
  </g>
</svg>
