<svg
  xmlns="http://www.w3.org/2000/svg"
  xmlns:xlink="http://www.w3.org/1999/xlink"
  fill="none"
  version="1.1"
  width="14"
  height="14"
  viewBox="0 0 14 14"
>
  <defs>
    <clipPath id="master_svg0_2_2309"><rect x="0" y="14" width="14" height="14" rx="0" /></clipPath>
    <linearGradient x1="0.5" y1="0" x2="0.5" y2="1" id="master_svg1_2_1442">
      <stop offset="0%" stop-color="#FF4210" stop-opacity="1" />
      <stop offset="100%" stop-color="#FE8A55" stop-opacity="1" />
    </linearGradient>
  </defs>
  <g transform="matrix(1,0,0,-1,0,28)" clip-path="url(#master_svg0_2_2309)">
    <g>
      <path
        d="M10.146546097384643,21.35355303841858L7.000099697384643,18.207107038418577L3.8536532473846434,21.35355303841858L3.8535827373846434,21.35348243841858Q3.7832705973846434,21.42379493841858,3.6914033873846437,21.461847538418578Q3.5995362373846436,21.499900138418578,3.5000998973846436,21.499900138418578Q3.4508640173846437,21.499900138418578,3.4025742073846437,21.49029473841858Q3.3542844073846436,21.480689238418577,3.3087964073846434,21.46184703841858Q3.2633084073846437,21.44300583841858,3.2223702973846438,21.41565153841858Q3.1814321873846434,21.388297338418578,3.1466171873846434,21.35348243841858Q3.1118021873846438,21.318667638418578,3.0844482113846436,21.27772923841858Q3.0570942383846433,21.236791338418577,3.0382524953846435,21.19130353841858Q3.0194107553846434,21.14581513841858,3.0098053188846436,21.09752583841858Q3.0001998841766437,21.04923553841858,3.0001998841766437,21.00000023841858Q3.0001998841766437,20.90056373841858,3.0382525543846435,20.80869653841858Q3.0763052253846435,20.716829338418577,3.1466173873846435,20.64651723841858L3.1465465473846437,20.64644643841858L6.646546097384643,17.14644688841858Q6.716871997384644,17.07612072641858,6.808757497384644,17.03806048241858Q6.900643097384643,17.00000023841858,7.000099697384643,17.00000023841858Q7.099555697384644,17.00000023841858,7.191441297384643,17.03806047841858Q7.283326397384643,17.07612071941858,7.353652697384644,17.14644688841858L10.853653197384643,20.64644643841858L10.853582097384644,20.64651723841858Q10.923893697384644,20.716829338418577,10.961946697384644,20.80869653841858Q10.999999797384643,20.90056373841858,10.999999797384643,21.00000023841858Q10.999999297384644,21.04923553841858,10.990393397384643,21.09752583841858Q10.980787997384644,21.14581513841858,10.961946297384642,21.19130353841858Q10.943104497384644,21.236791338418577,10.915750297384644,21.27772923841858Q10.888396997384643,21.318667638418578,10.853582097384644,21.35348243841858Q10.818766797384644,21.388297338418578,10.777828897384644,21.41565153841858Q10.736890597384644,21.44300583841858,10.691402197384644,21.461847538418578Q10.645914797384645,21.480689238418577,10.597624997384644,21.49029473841858Q10.549335197384643,21.499900138418578,10.500099897384644,21.499900138418578Q10.400663597384643,21.499900138418578,10.308796197384645,21.461847538418578Q10.216929197384644,21.42379493841858,10.146616697384644,21.35348243841858L10.146546097384643,21.35355303841858ZM10.146546097384643,24.85355303841858L7.000099697384643,21.70710683841858L3.8536532473846434,24.85355303841858L3.8535827373846434,24.85348243841858Q3.7832705973846434,24.923794038418578,3.6914033873846437,24.96184703841858Q3.5995362373846436,24.999900138418578,3.5000998973846436,24.999900138418578Q3.4508640173846437,24.99989963841858,3.4025742073846437,24.99029373841858Q3.3542844073846436,24.98068833841858,3.3087964073846434,24.961846638418578Q3.2633084073846437,24.94300483841858,3.2223702973846438,24.91565063841858Q3.1814321873846434,24.888297338418578,3.1466171873846434,24.85348243841858Q3.1118021873846438,24.81866713841858,3.0844482113846436,24.77772923841858Q3.0570942383846433,24.73679093841858,3.0382524953846435,24.69130253841858Q3.0194107553846434,24.64581513841858,3.0098053188846436,24.597525338418578Q3.0001998841766437,24.54923553841858,3.0001998841766437,24.50000023841858Q3.0001998841766437,24.40056343841858,3.0382525543846435,24.30869653841858Q3.0763052253846435,24.21682903841858,3.1466173873846435,24.14651703841858L3.1465465473846437,24.14644643841858L6.646546097384643,20.646446938418578Q6.681368097384643,20.61162473841858,6.722314097384643,20.584265238418578Q6.763260397384643,20.55690553841858,6.808757297384643,20.53806013841858Q6.854254497384644,20.51921483841858,6.902553797384643,20.50960733841858Q6.950853097384643,20.50000003841858,7.000099197384643,20.50000003841858Q7.049344797384643,20.50000003841858,7.097644097384643,20.50960733841858Q7.145943397384643,20.51921463841858,7.191440297384643,20.538059938418577Q7.236937297384643,20.55690553841858,7.277883797384644,20.58426503841858Q7.318830297384643,20.61162473841858,7.353652697384644,20.646446938418578L10.853653197384643,24.14644643841858L10.853582097384644,24.14651703841858Q10.923893697384644,24.21682903841858,10.961946697384644,24.308696038418578Q10.999999797384643,24.40056343841858,10.999999797384643,24.50000023841858Q10.999999297384644,24.54923553841858,10.990393397384643,24.597525338418578Q10.980787997384644,24.64581513841858,10.961946297384642,24.691303038418578Q10.943104497384644,24.73679093841858,10.915750297384644,24.77772883841858Q10.888396997384643,24.818666738418578,10.853582097384644,24.85348203841858Q10.818766797384644,24.88829683841858,10.777828897384644,24.91565063841858Q10.736890597384644,24.94300483841858,10.691402197384644,24.961846638418578Q10.645914797384645,24.98068833841858,10.597624997384644,24.99029373841858Q10.549335197384643,24.99989963841858,10.500099897384644,24.999900138418578Q10.400663597384643,24.999900138418578,10.308796197384645,24.961847538418578Q10.216929197384644,24.92379453841858,10.146616697384644,24.85348243841858L10.146546097384643,24.85355303841858Z"
        fill-rule="evenodd"
        fill="url(#master_svg1_2_1442)"
        fill-opacity="1"
      />
    </g>
  </g>
</svg>
