<svg
  xmlns="http://www.w3.org/2000/svg"
  xmlns:xlink="http://www.w3.org/1999/xlink"
  fill="none"
  version="1.1"
  width="20"
  height="20"
  viewBox="0 0 20 20"
>
  <defs>
    <clipPath id="master_svg0_2_84"><rect x="0" y="0" width="20" height="20" rx="0" /></clipPath>
  </defs>
  <g clip-path="url(#master_svg0_2_84)">
    <g>
      <path
        d="M2.44671383175,12.8227905859375L3.4695137437500003,8.7423896859375C3.59985764375,8.2253365859375,3.90073044375,7.7673334859375,4.32351384375,7.4423899859375L11.24751374375,2.1031899459375C12.29431434375,1.2963899659375,13.80551434375,1.4791899659375,14.62271434375,2.5119898959375L17.08991434375,5.6283897859375C17.90777834375,6.6591157859375,17.72101134375,8.1602930859375,16.675513343749998,8.9591898859375L9.75311374375,14.2967905859375C9.326346843749999,14.6252075859375,8.80241344375,14.8022455859375,8.26391364375,14.7999905859375L3.9971138437500002,14.7847915859375C3.11191386375,14.7815905859375,2.39671382895,14.0707895859375,2.399913787842,13.1967905859375C2.40031375884,13.0707915859375,2.41591377375,12.9451895859375,2.44671383175,12.8227905859375Z"
        fill="currentColor"
        fill-opacity="1"
        style="mix-blend-mode: passthrough"
      />
    </g>
    <g>
      <path
        d="M13.19990241375,13.5999755859375L16.79990294375,13.5999755859375Q17.59990264375,13.5999755859375,17.59990264375,14.3999755959375Q17.59990264375,15.1999755859375,16.79990294375,15.1999755859375L13.19990241375,15.1999755859375Q12.39990234375,15.1999755859375,12.39990234375,14.3999755959375Q12.39990234375,13.5999755859375,13.19990241375,13.5999755859375Z"
        fill="currentColor"
        fill-opacity="1"
        style="mix-blend-mode: passthrough"
      />
    </g>
    <g>
      <path
        d="M3.1999023537499998,16.800048828125L16.79990334375,16.800048828125Q17.59990234375,16.800048828125,17.59990234375,17.600048838125Q17.59990234375,18.400048828125,16.79990334375,18.400048828125L3.1999023537499998,18.400048828125Q2.39990234375,18.400048828125,2.39990234375,17.600048838125Q2.39990234375,16.800048828125,3.1999023537499998,16.800048828125Z"
        fill="currentColor"
        fill-opacity="1"
        style="mix-blend-mode: passthrough"
      />
    </g>
  </g>
</svg>
