<svg
  xmlns="http://www.w3.org/2000/svg"
  xmlns:xlink="http://www.w3.org/1999/xlink"
  fill="none"
  version="1.1"
  width="32"
  height="32"
  viewBox="0 0 32 32"
>
  <defs>
    <clipPath id="master_svg0_2_17758"><rect x="0" y="0" width="32" height="32" rx="0" /></clipPath>
  </defs>
  <g clip-path="url(#master_svg0_2_17758)">
    <g>
      <g
        transform="matrix(0.9659258127212524,-0.258819043636322,0.258819043636322,0.9659258127212524,-1.986500283604073,0.788137824025398)"
      >
        <rect
          x="2"
          y="7.9385528564453125"
          width="26.808509826660156"
          height="7.148935794830322"
          rx="1.1914894580841064"
          fill="currentColor"
          fill-opacity="1"
        />
      </g>
      <g>
        <path
          d="M3.7872341871261597,29.00000573339844L3.7872341871261597,14.106391233398437Q3.7872341871261597,14.047857033398438,3.79297153422616,13.989604833398438Q3.7987088811261596,13.931352533398437,3.8101283201261595,13.873943033398437Q3.8215477611261597,13.816533683398438,3.83853932112616,13.760520043398438Q3.85553088012616,13.704506333398438,3.87793090912616,13.650427813398437Q3.9003309571261595,13.596349363398437,3.9279237371261595,13.544726903398438Q3.9555165471261597,13.493104453398438,3.9880363371261596,13.444435063398437Q4.02055616712616,13.395765753398438,4.057689847126159,13.350518253398437Q4.09482347712616,13.305270793398437,4.136213367126159,13.263880913398438Q4.17760324712616,13.222491023398437,4.222850737126159,13.185357393398437Q4.26809820712616,13.148223723398438,4.316767517126159,13.115703893398438Q4.36543690712616,13.083184093398437,4.41705935712616,13.055591303398437Q4.46868181712616,13.027998503398438,4.522760267126159,13.005598455398438Q4.576838787126159,12.983198426398438,4.63285243712616,12.966206867398437Q4.688866137126159,12.949215307398438,4.74627548712616,12.937795866398437Q4.80368498712616,12.926376427398438,4.8619372871261595,12.920639080498438Q4.9201894871261596,12.914901733398438,4.97872368712616,12.914901733398438L28.80851018712616,12.914901733398438Q28.86704518712616,12.914901733398438,28.92529718712616,12.920639080498438Q28.98355018712616,12.926376427398438,29.04095718712616,12.937795866398437Q29.09836818712616,12.949215307398438,29.15438118712616,12.966206867398437Q29.21039518712616,12.983198426398438,29.26447218712616,13.005598455398438Q29.31855118712616,13.027998503398438,29.37017318712616,13.055591283398437Q29.42179618712616,13.083184093398437,29.47046318712616,13.115703883398437Q29.519133187126158,13.148223713398437,29.56438318712616,13.185357393398437Q29.60962918712616,13.222491023398437,29.651021187126158,13.263880913398438Q29.69241218712616,13.305270793398437,29.72954618712616,13.350518283398438Q29.766679187126158,13.395765753398438,29.79919718712616,13.444435063398437Q29.83171718712616,13.493104453398438,29.85931118712616,13.544726903398438Q29.88690318712616,13.596349363398437,29.90930018712616,13.650427813398437Q29.931704187126158,13.704506333398438,29.94869518712616,13.760519983398437Q29.96568618712616,13.816533683398438,29.97710318712616,13.873943033398437Q29.98852418712616,13.931352533398437,29.99426318712616,13.989604833398438Q30.00000318712616,14.047857033398438,30.00000118712616,14.106391233398437L30.00000118712616,29.00000573339844Q30.00000318712616,29.058540733398438,29.99426518712616,29.116792733398437Q29.98852618712616,29.175044733398437,29.97710518712616,29.23245273339844Q29.96568718712616,29.289863733398438,29.94869518712616,29.345876733398438Q29.931704187126158,29.401889733398438,29.90930218712616,29.455966733398437Q29.88690418712616,29.51004573339844,29.85931118712616,29.561668733398438Q29.83171718712616,29.613290733398436,29.79919718712616,29.661960733398438Q29.766679187126158,29.710628733398437,29.72954418712616,29.755876733398438Q29.69241218712616,29.80112473339844,29.651021187126158,29.842513733398437Q29.60962918712616,29.883903733398437,29.56438118712616,29.92103773339844Q29.519133187126158,29.958171733398437,29.47046318712616,29.990689733398437Q29.42179618712616,30.023208733398437,29.37017318712616,30.050801733398437Q29.31855118712616,30.078395733398438,29.26447218712616,30.10079573339844Q29.21039518712616,30.123197733398438,29.15438118712616,30.140189733398437Q29.09836818712616,30.157180733398437,29.04095718712616,30.16859773339844Q28.98355018712616,30.18001973339844,28.92529718712616,30.18575673339844Q28.86704518712616,30.191495733398437,28.80851018712616,30.191495733398437L4.97872368712616,30.191495733398437Q4.9201894871261596,30.191495733398437,4.8619372871261595,30.185758733398437Q4.80368498712616,30.18001973339844,4.74627548712616,30.168599733398437Q4.688866137126159,30.157180733398437,4.6328524971261595,30.140189733398437Q4.576838787126159,30.123199733398437,4.522760267126159,30.100797733398437Q4.46868181712616,30.078399733398438,4.41705935712616,30.050805733398438Q4.36543690712616,30.023212733398438,4.316767517126159,29.99069173339844Q4.26809820712616,29.958171733398437,4.22285070712616,29.921039733398437Q4.17760324712616,29.883907733398438,4.136213367126159,29.842515733398436Q4.09482347712616,29.80112873339844,4.057689847126159,29.755878733398436Q4.02055617712616,29.710632733398437,3.9880363471261595,29.661960733398438Q3.9555165471261597,29.61329273339844,3.92792375712616,29.561668733398438Q3.9003309571261595,29.510047733398437,3.87793090912616,29.455966733398437Q3.85553088012616,29.401889733398438,3.83853932112616,29.345876733398438Q3.8215477611261597,29.289863733398438,3.8101283201261595,29.23245273339844Q3.7987088811261596,29.175044733398437,3.79297153422616,29.116792733398437Q3.7872341871261597,29.058540733398438,3.7872341871261597,29.00000573339844ZM7.000124787126159,16.24998473339844Q7.000124787126159,16.200256333398436,7.01915468712616,16.154313533398437Q7.038184787126159,16.108370733398438,7.073347887126159,16.07320783339844Q7.10851088712616,16.038044733398436,7.154453587126159,16.019014633398438Q7.20039638712616,15.999984733398438,7.250124787126159,15.999984733398438L26.75012518712616,15.999984733398438Q26.79984918712616,15.999984733398438,26.84579218712616,16.019014833398437Q26.89173418712616,16.038044733398436,26.92689818712616,16.07320783339844Q26.96206018712616,16.108370733398438,26.98109118712616,16.154313533398437Q27.000121187126158,16.200256333398436,27.00012518712616,16.24998473339844Q27.000121187126158,16.29971263339844,26.98108918712616,16.345655433398438Q26.96206018712616,16.391598033398438,26.92689818712616,16.426761133398436Q26.89173418712616,16.46192403339844,26.84579318712616,16.480954133398438Q26.79984918712616,16.499984533398436,26.75012518712616,16.49998473339844L7.250124787126159,16.49998473339844Q7.20039638712616,16.499984533398436,7.154453587126159,16.480954133398438Q7.10851088712616,16.46192403339844,7.073347887126159,16.426761133398436Q7.038184787126159,16.391598033398438,7.0191548871261595,16.345655433398438Q7.000124787126159,16.29971263339844,7.000124787126159,16.24998473339844ZM7.250124787126159,26.999984733398435Q7.20039638712616,26.999984733398435,7.154453587126159,27.019013733398438Q7.10851088712616,27.03804373339844,7.073347887126159,27.073206733398436Q7.038184787126159,27.108369733398437,7.0191548871261595,27.154311733398437Q7.000124787126159,27.200256733398437,7.000124787126159,27.249984733398435Q7.000124787126159,27.299710733398438,7.01915468712616,27.345654733398437Q7.038184787126159,27.391596733398437,7.073347887126159,27.42676073339844Q7.10851088712616,27.46192273339844,7.154453587126159,27.48095273339844Q7.20039638712616,27.49998273339844,7.250124787126159,27.499984733398435L26.75012518712616,27.499984733398435Q26.79984918712616,27.49998273339844,26.84579218712616,27.48095273339844Q26.89173418712616,27.46192273339844,26.92689818712616,27.42676073339844Q26.96206018712616,27.391596733398437,26.98109118712616,27.345653733398436Q27.000121187126158,27.299710733398438,27.00012518712616,27.249984733398435Q27.000121187126158,27.200256733398437,26.98108918712616,27.154312733398438Q26.96206018712616,27.108369733398437,26.92689818712616,27.073207733398437Q26.89173418712616,27.03804373339844,26.84579318712616,27.019014733398436Q26.79984918712616,26.999984733398435,26.75012518712616,26.999984733398435L7.250124787126159,26.999984733398435Z"
          fill-rule="evenodd"
          fill="currentColor"
          fill-opacity="1"
        />
      </g>
    </g>
  </g>
</svg>
