<svg
  xmlns="http://www.w3.org/2000/svg"
  xmlns:xlink="http://www.w3.org/1999/xlink"
  fill="none"
  version="1.1"
  width="16"
  height="16"
  viewBox="0 0 16 16"
>
  <defs>
    <clipPath id="master_svg0_5_5266"><rect x="16" y="0" width="16" height="16" rx="0" /></clipPath>
  </defs>
  <g transform="matrix(-1,0,0,1,32,0)" clip-path="url(#master_svg0_5_5266)">
    <g>
      <path
        d="M26.828127853125,4.49487585Q26.926564653125,4.39643896,26.979838353125,4.26782489Q27.033112053125002,4.13921084,27.033112053125002,4Q27.033111553125,3.931069806,27.019663853125,3.86346409Q27.006216053125,3.79585837,26.979837853124998,3.73217517Q26.953459753125,3.66849196,26.915163953125,3.61117861Q26.876868253125,3.55386525,26.828127353124998,3.50512424Q26.779386553125,3.45638323,26.722072553125,3.41808766Q26.664759653125,3.37979209,26.601076153125,3.3534137Q26.537393053125,3.3270352499999998,26.469787553125002,3.31358761Q26.402182053125,3.3001400199999997,26.333251953125,3.30013996Q26.194040753125,3.3001400199999997,26.065426853125,3.35341358Q25.936812853125,3.40668726,25.838376253125,3.50512415L25.838277353125,3.50502527L21.838277223125,7.5050254Q21.739820663125,7.6034818,21.686536373125,7.7321215Q21.633252023125,7.8607612,21.633252023125,7.999999799999999Q21.633252023125,8.1392384,21.686536313125,8.2678781Q21.739820663125,8.3965178,21.838277223125,8.494974599999999L25.838277353125,12.4949751L25.838376553125,12.4948759Q25.936813353125,12.5933123,26.065427353125,12.6465855Q26.194041253125,12.6998596,26.333251953125,12.6998596Q26.402182053125,12.6998596,26.469787553125002,12.6864119Q26.537393553125,12.6729641,26.601076553125,12.6465855Q26.664759653125,12.6202068,26.722073053125,12.5819111Q26.779386553125,12.5436153,26.828127853125,12.494875Q26.876868753125,12.4461336,26.915163953125,12.3888197Q26.953459753125,12.3315067,26.979837853124998,12.2678232Q27.006216053125,12.2041397,27.019663853125,12.1365356Q27.033111553125,12.0689297,27.033112053125002,12Q27.033112053125002,11.8607893,26.979838353125,11.7321749Q26.926564653125,11.6035609,26.828127853125,11.5051241L26.828226553125,11.505025400000001L23.323201303125,8L26.828226553125,4.49497473L26.828127853125,4.49487585Z"
        fill-rule="evenodd"
        fill="currentColor"
        fill-opacity="1"
        style="mix-blend-mode: passthrough"
      />
    </g>
  </g>
</svg>
