<svg
  xmlns="http://www.w3.org/2000/svg"
  xmlns:xlink="http://www.w3.org/1999/xlink"
  fill="none"
  version="1.1"
  width="20"
  height="20"
  viewBox="0 0 20 20"
>
  <defs>
    <clipPath id="master_svg0_2_42414"><rect x="0" y="0" width="20" height="20" rx="0" /></clipPath>
  </defs>
  <g clip-path="url(#master_svg0_2_42414)">
    <g>
      <path
        d="M3.3125,5.679034413828125L16.645828,5.679034413828125L16.645828,5.678894463828125Q16.714758,5.678894403828125,16.782363,5.665446813828125Q16.849968,5.651999173828125,16.913651,5.625620723828125Q16.977334,5.5992423338281245,17.034648,5.560946703828125Q17.091960999999998,5.522651193828125,17.140703000000002,5.473910183828125Q17.189444,5.425169173828125,17.227738000000002,5.367855783828125Q17.266033,5.310542463828125,17.292412,5.246859253828125Q17.31879,5.183176053828125,17.332239,5.115570333828125Q17.345686999999998,5.047964617828125,17.345688000000003,4.979034423828125Q17.345686999999998,4.910104229828125,17.332239,4.842498513828125Q17.31879,4.774892793828125,17.292412,4.711209593828125Q17.266033,4.647526383828125,17.227738000000002,4.590213033828125Q17.189444,4.532899673828125,17.140703000000002,4.484158663828125Q17.091960999999998,4.435417653828125,17.034648,4.397122083828125Q16.977335,4.3588265138281255,16.913651,4.332448123828125Q16.849969,4.306069673828125,16.782364,4.292622033828125Q16.714758,4.279174443828125,16.645828,4.279174383828125L16.645828,4.279034433828125L3.3125,4.279034433828125L3.3125,4.279174383828125Q3.243569806,4.279174443828125,3.17596409,4.292622033828125Q3.10835837,4.306069673828125,3.04467517,4.332448123828125Q2.98099196,4.3588265138281255,2.92367861,4.397122143828125Q2.86636525,4.435417653828125,2.81762424,4.484158663828125Q2.76888323,4.532899673828125,2.73058766,4.590213063828125Q2.69229209,4.647526383828125,2.6659137,4.711209593828125Q2.6395352499999998,4.774892793828125,2.62608761,4.842498513828125Q2.6126400199999997,4.910104229828125,2.61263996,4.979034423828125Q2.6126400199999997,5.047964617828125,2.62608761,5.115570333828125Q2.6395352499999998,5.183176053828125,2.6659137,5.246859253828125Q2.69229209,5.310542463828125,2.73058772,5.367855813828125Q2.76888323,5.425169173828125,2.81762424,5.473910183828125Q2.86636525,5.522651193828125,2.92367864,5.560946763828125Q2.98099196,5.5992423338281245,3.04467517,5.625620723828125Q3.10835837,5.651999173828125,3.17596409,5.665446813828125Q3.243569806,5.678894403828125,3.3125,5.678894463828125L3.3125,5.679034413828125Z"
        fill-rule="evenodd"
        fill="currentColor"
        fill-opacity="1"
        style="mix-blend-mode: passthrough"
      />
    </g>
    <g>
      <path
        d="M3.3125,10.679034413828125L16.645828,10.679034413828125L16.645828,10.678894463828126Q16.714758,10.678894403828124,16.782363,10.665446813828124Q16.849968,10.651999173828125,16.913651,10.625620723828124Q16.977334,10.599242333828125,17.034648,10.560946703828124Q17.091960999999998,10.522651193828125,17.140703000000002,10.473910183828124Q17.189444,10.425169173828126,17.227738000000002,10.367855783828125Q17.266033,10.310542463828124,17.292412,10.246859253828125Q17.31879,10.183176053828126,17.332239,10.115570333828124Q17.345686999999998,10.047964617828125,17.345688000000003,9.979034423828125Q17.345686999999998,9.910104229828125,17.332239,9.842498513828126Q17.31879,9.774892793828124,17.292412,9.711209593828125Q17.266033,9.647526383828126,17.227738000000002,9.590213033828125Q17.189444,9.532899673828124,17.140703000000002,9.484158663828126Q17.091960999999998,9.435417653828125,17.034648,9.397122083828124Q16.977335,9.358826513828125,16.913651,9.332448123828126Q16.849969,9.306069673828125,16.782364,9.292622033828126Q16.714758,9.279174443828126,16.645828,9.279174383828124L16.645828,9.279034433828125L3.3125,9.279034433828125L3.3125,9.279174383828124Q3.243569806,9.279174443828126,3.17596409,9.292622033828126Q3.10835837,9.306069673828125,3.04467517,9.332448123828126Q2.98099196,9.358826513828125,2.92367861,9.397122143828126Q2.86636525,9.435417653828125,2.81762424,9.484158663828126Q2.76888323,9.532899673828124,2.73058766,9.590213063828125Q2.69229209,9.647526383828126,2.6659137,9.711209593828125Q2.6395352499999998,9.774892793828124,2.62608761,9.842498513828126Q2.6126400199999997,9.910104229828125,2.61263996,9.979034423828125Q2.6126400199999997,10.047964617828125,2.62608761,10.115570333828124Q2.6395352499999998,10.183176053828126,2.6659137,10.246859253828125Q2.69229209,10.310542463828124,2.73058772,10.367855813828125Q2.76888323,10.425169173828126,2.81762424,10.473910183828124Q2.86636525,10.522651193828125,2.92367864,10.560946763828126Q2.98099196,10.599242333828125,3.04467517,10.625620723828124Q3.10835837,10.651999173828125,3.17596409,10.665446813828124Q3.243569806,10.678894403828124,3.3125,10.678894463828126L3.3125,10.679034413828125Z"
        fill-rule="evenodd"
        fill="currentColor"
        fill-opacity="1"
        style="mix-blend-mode: passthrough"
      />
    </g>
    <g>
      <path
        d="M3.3125,15.679034413828125L16.645828,15.679034413828125L16.645828,15.678894463828126Q16.714758,15.678894403828124,16.782363,15.665446813828124Q16.849968,15.651999173828125,16.913651,15.625620723828124Q16.977334,15.599242333828125,17.034648,15.560946703828124Q17.091960999999998,15.522651193828125,17.140703000000002,15.473910183828124Q17.189444,15.425169173828126,17.227738000000002,15.367855783828125Q17.266033,15.310542463828124,17.292412,15.246859253828125Q17.31879,15.183176053828126,17.332239,15.115570333828124Q17.345686999999998,15.047964617828125,17.345688000000003,14.979034423828125Q17.345686999999998,14.910104229828125,17.332239,14.842498513828126Q17.31879,14.774892793828124,17.292412,14.711209593828125Q17.266033,14.647526383828126,17.227738000000002,14.590213033828125Q17.189444,14.532899673828124,17.140703000000002,14.484158663828126Q17.091960999999998,14.435417653828125,17.034648,14.397122083828124Q16.977335,14.358826513828125,16.913651,14.332448123828126Q16.849969,14.306069673828125,16.782364,14.292622033828126Q16.714758,14.279174443828126,16.645828,14.279174383828124L16.645828,14.279034433828125L3.3125,14.279034433828125L3.3125,14.279174383828124Q3.243569806,14.279174443828126,3.17596409,14.292622033828126Q3.10835837,14.306069673828125,3.04467517,14.332448123828126Q2.98099196,14.358826513828125,2.92367861,14.397122143828126Q2.86636525,14.435417653828125,2.81762424,14.484158663828126Q2.76888323,14.532899673828124,2.73058766,14.590213063828125Q2.69229209,14.647526383828126,2.6659137,14.711209593828125Q2.6395352499999998,14.774892793828124,2.62608761,14.842498513828126Q2.6126400199999997,14.910104229828125,2.61263996,14.979034423828125Q2.6126400199999997,15.047964617828125,2.62608761,15.115570333828124Q2.6395352499999998,15.183176053828126,2.6659137,15.246859253828125Q2.69229209,15.310542463828124,2.73058772,15.367855813828125Q2.76888323,15.425169173828126,2.81762424,15.473910183828124Q2.86636525,15.522651193828125,2.92367864,15.560946763828126Q2.98099196,15.599242333828125,3.04467517,15.625620723828124Q3.10835837,15.651999173828125,3.17596409,15.665446813828124Q3.243569806,15.678894403828124,3.3125,15.678894463828126L3.3125,15.679034413828125Z"
        fill-rule="evenodd"
        fill="currentColor"
        fill-opacity="1"
        style="mix-blend-mode: passthrough"
      />
    </g>
  </g>
</svg>
