<svg xmlns="http://www.w3.org/2000/svg" xmlns:xlink="http://www.w3.org/1999/xlink" fill="none" version="1.1" width="4.4998779296875" height="8" viewBox="0 0 4.4998779296875 8"><g transform="matrix(-1,0,0,1,7.999755859375,0)"><g><path d="M7.8533604296875,0.85348287Q7.9236726296875,0.78317076,7.9617252296875005,0.69130357Q7.9997778296875,0.599436358,7.9997780296875,0.5Q7.9997778296875,0.450764146,7.9901724296875,0.402474351Q7.980566729687499,0.35418455,7.9617247296875,0.30869657Q7.942883029687501,0.26320857,7.9155292296875,0.22227046Q7.8881755296875,0.18133234999999998,7.8533604296875,0.14651734Q7.8185453296875,0.11170232000000002,7.7776072296875,0.08434838Q7.7366690296875,0.056994409999999995,7.6911809296875,0.038152660000000005Q7.6456928296874995,0.019310890000000025,7.5974033296875,0.009705450000000004Q7.549113529687499,0.00010001999999997846,7.4998779296875,0.00009998999999999425Q7.4004414296875005,0.00010001999999997846,7.308573929687499,0.038152660000000005Q7.2167067296875,0.07620534000000001,7.146394929687499,0.14651748999999997L7.1463241296875,0.14644665L3.6463245796875,3.6464462Q3.6115026496875,3.681268,3.5841431896875,3.7222142Q3.5567837396875,3.7631605,3.5379382396875,3.8086576Q3.5190927396875002,3.8541546,3.5094853596875,3.9024544Q3.4998779896875,3.9507537,3.4998779896875,3.9999995Q3.4998779896875,4.0492449,3.5094853596875,4.0975444Q3.5190927396875002,4.145844,3.5379382396875,4.1913409Q3.5567837396875,4.2368381,3.5841432196875,4.2777846Q3.6115026496875,4.3187308,3.6463245796875,4.3535531L7.1463241296875,7.8535533L7.146394929687499,7.8534822Q7.2167067296875,7.9237938,7.308574229687499,7.9618468Q7.4004414296875005,7.9998999,7.4998779296875,7.9998999Q7.549113529687499,7.9998994,7.5974033296875,7.9902935Q7.6456928296874995,7.9806881,7.6911809296875,7.9618464Q7.7366690296875,7.9430046,7.7776072296875,7.9156508Q7.8185453296875,7.8882971,7.8533606296875,7.8534818Q7.8881757296875,7.8186669,7.9155297296875,7.777729Q7.9428835296875,7.7367907,7.9617250296875,7.6913023Q7.980566729687499,7.6458149,7.9901721296875,7.5975251Q7.9997778296875,7.5492353,7.9997780296875,7.5Q7.9997780296875,7.4005637,7.9617252296875005,7.3086963Q7.9236724296875,7.2168293,7.8533601296875,7.1465168L7.8534310296875,7.1464462L4.7069846996875,3.9999998L7.8534310296875,0.85355335L7.8533604296875,0.85348287Z" fill-rule="evenodd" fill="#666666" fill-opacity="1"/></g></g></svg>