<svg
  xmlns="http://www.w3.org/2000/svg"
  xmlns:xlink="http://www.w3.org/1999/xlink"
  fill="none"
  version="1.1"
  width="10"
  height="10"
  viewBox="0 0 10 10"
>
  <defs>
    <clipPath id="master_svg0_2_03124"><rect x="0" y="0" width="10" height="10" rx="0" /></clipPath>
  </defs>
  <g clip-path="url(#master_svg0_2_03124)">
    <g>
      <path
        d="M7.8125,4.375L6.875,4.375L6.875,3.125C6.875,2.0859375,6.0390625,1.25,5,1.25C3.9609375,1.25,3.125,2.0859375,3.125,3.125L3.125,4.375L2.1875,4.375C2.015625,4.375,1.875,4.515625,1.875,4.6875L1.875,8.4375C1.875,8.609375,2.015625,8.75,2.1875,8.75L7.8125,8.75C7.984375,8.75,8.125,8.609375,8.125,8.4375L8.125,4.6875C8.125,4.515625,7.984375,4.375,7.8125,4.375ZM5,7.1875C4.65625,7.1875,4.375,6.90625,4.375,6.5625C4.375,6.21875,4.65625,5.9375,5,5.9375C5.34375,5.9375,5.625,6.21875,5.625,6.5625C5.625,6.90625,5.34375,7.1875,5,7.1875ZM6.25,4.375L3.75,4.375L3.75,3.125C3.75,2.4375,4.3125,1.875,5,1.875C5.6875,1.875,6.25,2.4375,6.25,3.125L6.25,4.375Z"
        fill="currentColor"
        fill-opacity="1"
        style="mix-blend-mode: passthrough"
      />
    </g>
  </g>
</svg>
