<svg
  xmlns="http://www.w3.org/2000/svg"
  xmlns:xlink="http://www.w3.org/1999/xlink"
  fill="none"
  version="1.1"
  width="20"
  height="20.000001907348633"
  viewBox="0 0 20 20.000001907348633"
>
  <defs>
    <clipPath id="master_svg0_2_8981">
      <rect x="0" y="0" width="20" height="20.000001907348633" rx="0" />
    </clipPath>
  </defs>
  <g clip-path="url(#master_svg0_2_8981)">
    <g>
      <path
        d="M9.1176901,3.60469347C9.6901903,3.16469346,10.3701906,2.80844344,11.09644,3.11469346C11.81644,3.41969341,12.04644,4.1521938,12.146441,4.8734435000000005C12.24894,5.6121935999999994,12.24894,6.6296937,12.24894,7.8946934L12.24894,12.6909437C12.24894,13.955944,12.24894,14.973445,12.14769,15.713444C12.04769,16.433444,11.816441,17.165943,11.097691,17.470943C10.3701906,17.778442,9.6901913,17.420943,9.117691,16.980945C8.5314403,16.530943999999998,7.7889404,15.772194,6.9139404,14.879695C6.4639411,14.419693,6.1651907,14.197195,5.8639407,14.073444C5.5589409,13.948444,5.1901908,13.894694,4.5464408,13.894694C3.9889407,13.894694,3.4901907,13.894694,3.1126907,13.854694C2.7176905,13.813444,2.3501906,13.724693,2.0189407,13.498445C1.3901905399999999,13.068444,1.14894058,12.4396944,1.056440547,11.8609447C0.9901896473,11.4309444,0.9976896285,10.957193400000001,1.0039396291,10.575942999999999L1.0039396291,10.0109434C0.9976896285,9.6296935,0.9914396275,9.1559429,1.058939651,8.7234435C1.1501897,8.1459432,1.39143965,7.5171933,2.0214398,7.0871935C2.3514398,6.8621935999999994,2.7189398000000002,6.7721934,3.1139398,6.7309434C3.4914401,6.6921937,3.98894,6.6921937,4.5464399,6.6921937C5.1914401,6.6921937,5.5601902,6.6384439,5.8639402,6.5134439C6.16644,6.3884439,6.4639397,6.1659439,6.91394,5.7071939C7.78894,4.8146938,8.532689999999999,4.0546939,9.1189404,3.60469383L9.1176901,3.60469347Z"
        fill="currentColor"
        fill-opacity="1"
        style="mix-blend-mode: passthrough"
      />
    </g>
    <g>
      <g
        transform="matrix(0.7071067690849304,0.7071067690849304,-0.7071067690849304,0.7071067690849304,10.456438133990929,-11.243283504222774)"
      >
        <rect
          x="18.800063133239746"
          y="7.00039529800415"
          width="1.696964144706726"
          height="6.787856578826904"
          rx="0.848482072353363"
          fill="currentColor"
          fill-opacity="1"
        />
      </g>
      <g
        transform="matrix(0.7071067690849304,-0.7071067690849304,0.7071067690849304,0.7071067690849304,-1.697722934346018,12.301199652095022)"
      >
        <rect
          x="14"
          y="8.199933052062988"
          width="1.696964144706726"
          height="6.787856578826904"
          rx="0.848482072353363"
          fill="currentColor"
          fill-opacity="1"
        />
      </g>
    </g>
  </g>
</svg>
