<svg xmlns="http://www.w3.org/2000/svg" xmlns:xlink="http://www.w3.org/1999/xlink" fill="none" version="1.1" width="20" height="20" viewBox="0 0 20 20"><defs><clipPath id="master_svg0_2_16819"><rect x="0" y="0" width="20" height="20" rx="0"/></clipPath></defs><g clip-path="url(#master_svg0_2_16819)"><g><ellipse cx="10.000081300735474" cy="4.999989748001099" rx="3.3333332538604736" ry="3.3333332538604736" fill-opacity="0" stroke-opacity="1" stroke="#FFFFFF" fill="none" stroke-width="1.399999976158142" stroke-linecap="ROUND" stroke-linejoin="round" style="mix-blend-mode:passthrough"/></g><g><path d="M4.2017285,12.535071505859374Q1.80000001,14.936799505859376,1.80000001,18.333343005859376L1.80013996,18.333343005859376Q1.80014002,18.402273205859373,1.81358761,18.469878705859376Q1.82703525,18.537484205859375,1.8534137,18.601166705859374Q1.87979209,18.664850205859373,1.91808772,18.722163705859373Q1.9563832300000001,18.779477105859375,2.00512424,18.828218505859375Q2.05386525,18.876958805859374,2.11117864,18.915254605859374Q2.16849196,18.953550305859373,2.23217517,18.979929005859375Q2.29585837,19.006307605859377,2.36346409,19.019755405859375Q2.431069806,19.033203105859375,2.5,19.033203105859375Q2.568930194,19.033203105859375,2.63653591,19.019755405859375Q2.70414163,19.006307605859377,2.76782483,18.979929005859375Q2.83150804,18.953550305859373,2.88882139,18.915254605859374Q2.94613475,18.876958805859374,2.99487576,18.828218505859375Q3.04361677,18.779477105859375,3.08191234,18.722163705859373Q3.12020791,18.664850205859373,3.1465863,18.601167205859376Q3.1729647500000002,18.537484205859375,3.18641239,18.469878705859376Q3.1998599800000003,18.402273205859373,3.19986004,18.333343505859375L3.1999999900000002,18.333343005859376Q3.1999999900000002,15.516699305859376,5.191678,13.525021105859375Q7.1833558,11.533343495859375,9.999999500000001,11.533343495859375Q12.816645,11.533343495859375,14.808322,13.525021105859375Q16.799999,15.516697905859374,16.799999,18.333343005859376L16.80014,18.333343005859376Q16.80014,18.402273205859373,16.813587,18.469878705859376Q16.827033999999998,18.537484205859375,16.853413,18.601166705859374Q16.879791,18.664850205859373,16.918087,18.722163705859373Q16.956383000000002,18.779477105859375,17.005122999999998,18.828218505859375Q17.053864,18.876958805859374,17.111176999999998,18.915254605859374Q17.16849,18.953550305859373,17.232174,18.979929005859375Q17.295856999999998,19.006307605859377,17.363463,19.019755405859375Q17.431069,19.033203105859375,17.5,19.033203105859375Q17.56893,19.033203105859375,17.636535000000002,19.019755405859375Q17.704140000000002,19.006307605859377,17.767823,18.979929005859375Q17.831505999999997,18.953550305859373,17.888820000000003,18.915254605859374Q17.946133,18.876958805859374,17.994874,18.828218505859375Q18.043613999999998,18.779477105859375,18.081909,18.722163705859373Q18.120205,18.664850205859373,18.146584,18.601167205859376Q18.172962,18.537484205859375,18.186411,18.469878705859376Q18.199859,18.402273205859373,18.19986,18.333343505859375L18.199998,18.333343005859376Q18.199998,14.936798605859375,15.798271,12.535071705859375Q13.396544,10.133343515859375,9.999999500000001,10.133343515859375Q6.6034565,10.133343455859375,4.2017285,12.535071505859374Z" fill-rule="evenodd" fill="#FFFFFF" fill-opacity="1" style="mix-blend-mode:passthrough"/></g></g></svg>