<svg
  xmlns="http://www.w3.org/2000/svg"
  xmlns:xlink="http://www.w3.org/1999/xlink"
  fill="none"
  version="1.1"
  width="20"
  height="20"
  viewBox="0 0 20 20"
>
  <defs>
    <clipPath id="master_svg0_2_42418"><rect x="0" y="0" width="20" height="20" rx="0" /></clipPath>
  </defs>
  <g clip-path="url(#master_svg0_2_42418)">
    <g>
      <path
        d="M3.2464399468750003,3.2463483941406253Q0.966748356875,5.526040094140625,0.966748056875,8.749989494140625Q0.966748056875,11.973938494140626,3.2464399468750003,14.253630494140625Q5.526131646875,16.533322494140627,8.750081046875,16.533322494140627Q11.974030046875,16.533322494140627,14.253722046875,14.253630494140625Q16.533414046875002,11.973938494140626,16.533414046875002,8.749989494140625Q16.533414046875002,5.526040094140625,14.253722046875,3.2463483941406253Q11.974030046875,0.966656804140625,8.750081046875,0.966656504140625Q5.526131646875,0.966656504140625,3.2464399468750003,3.2463483941406253ZM4.236389446875,13.263681494140625Q2.3667480368750002,11.394039194140625,2.3667480368750002,8.749989494140625Q2.366747916875,6.105939394140625,4.236389446875,4.236297894140625Q6.106030946875,2.3666564841406252,8.750081046875,2.3666564841406252Q11.394130746875,2.366656364140625,13.263773046875,4.236297894140625Q15.133414046875,6.105939394140625,15.133414046875,8.749989494140625Q15.133414046875,11.394039194140625,13.263773046875,13.263681494140625Q11.394130746875,15.133322494140625,8.750081046875,15.133322494140625Q6.106030946875,15.133322494140625,4.236389446875,13.263681494140625Z"
        fill-rule="evenodd"
        fill="currentColor"
        fill-opacity="1"
        style="mix-blend-mode: passthrough"
      />
    </g>
    <g>
      <path
        d="M7.17991495625,4.61723799Q6.45597491425,4.923433825,5.89809182625,5.48131669L5.89819073625,5.4814156Q5.79975378625,5.57985252,5.74648010625,5.7084665900000005Q5.69320636625,5.83708066,5.69320636625,5.97629148Q5.69320642625,6.0452216,5.70665401625,6.1128273Q5.72010165625,6.180433,5.74648010625,6.2441162Q5.7728584962500005,6.3077993,5.81115412625,6.3651128Q5.84944963625,6.4224262,5.89819064625,6.4711672Q5.94693165625,6.5199082,6.00424504625,6.5582037Q6.06155836625,6.5964992,6.12524157625,6.6228777Q6.18892477625,6.6492562,6.25653049625,6.6627038Q6.32413621225,6.6761515,6.39306640625,6.6761515Q6.53227715625,6.6761514,6.66089111625,6.6228777Q6.78950506625,6.5696042,6.88794201625,6.4711674L6.88804098625,6.4712664Q7.25283658625,6.1064708,7.72528020625,5.90664738Q8.21385740625,5.69999993,8.75006560625,5.69999993Q9.28630420625,5.69999993,9.77489110625,5.9066487Q10.24733710625,6.1064706,10.61213350625,6.4712666L10.612232206249999,6.4711678Q10.71066950625,6.5696044,10.83928300625,6.622878Q10.967896906250001,6.6761515,11.10710760625,6.6761515Q11.176037806250001,6.6761515,11.24364280625,6.6627038Q11.31124880625,6.6492562,11.37493180625,6.6228777Q11.438614806250001,6.5964992,11.49592880625,6.5582037Q11.553241706249999,6.5199082,11.60198310625,6.4711672Q11.65072440625,6.4224262,11.68901970625,6.3651129Q11.727314906250001,6.3077995,11.75369360625,6.2441163Q11.78007220625,6.180433,11.793520006249999,6.1128274000000005Q11.80696770625,6.0452216,11.80696770625,5.97629148Q11.80696730625,5.83708048,11.75369360625,5.7084662900000005Q11.700419406249999,5.5798521,11.60198310625,5.48141521L11.60208180625,5.48131639Q11.04419520625,4.923430659,10.32025000625,4.61723673Q9.57019610625,4.30000007,8.75006560625,4.30000007Q7.92996180625,4.30000007,7.17991495625,4.61723799Z"
        fill-rule="evenodd"
        fill="currentColor"
        fill-opacity="1"
        style="mix-blend-mode: passthrough"
      />
    </g>
    <g>
      <path
        d="M13.34740936625,14.337252498984375Q13.24897247625,14.238815548984375,13.19569879625,14.110201538984375Q13.14242511625,13.981587518984375,13.14242511625,13.842376708984375Q13.14242517625,13.773446514984375,13.15587276625,13.705840798984376Q13.16932040625,13.638235078984374,13.19569885625,13.574551878984375Q13.22207724625,13.510868668984376,13.26037287625,13.453555318984375Q13.29866838625,13.396241958984374,13.34740939625,13.347500948984376Q13.39615040625,13.298759938984375,13.45346379625,13.260464368984374Q13.51077711625,13.222168798984375,13.57446032625,13.195790408984376Q13.63814352625,13.169411958984375,13.70574924625,13.155964318984376Q13.77335496225,13.142516728984376,13.84228515625,13.142516668984374Q13.98149596625,13.142516668984374,14.11010998625,13.195790348984374Q14.23872399625,13.249064028984375,14.33716094625,13.347500918984375L14.33725985625,13.347402008984375L17.87280175625,16.882944308984374L17.87270305625,16.883043008984373Q17.97113995625,16.981479908984376,18.02441355625,17.110094108984374Q18.07768725625,17.238708008984375,18.07768775625,17.377919208984373Q18.07768725625,17.446849308984376,18.06423945625,17.514454808984375Q18.05079175625,17.582060608984374,18.02441355625,17.645743808984374Q17.99803545625,17.709426908984376,17.95973965625,17.766740308984375Q17.921443956250002,17.824053508984374,17.87270305625,17.872794608984375Q17.82396195625,17.921535508984377,17.76664875625,17.959831208984376Q17.70933535625,17.998127008984376,17.64565225625,18.024505108984375Q17.58196905625,18.050883308984375,17.51436325625,18.064331008984375Q17.44675775625,18.077778808984377,17.37782765625,18.077779308984375Q17.23861645625,18.077778808984377,17.11000225625,18.024505108984375Q16.98138835625,17.971231508984374,16.882951456249998,17.872794608984375L16.88285275625,17.872893308984374L13.34731045625,14.337351408984375L13.34740936625,14.337252498984375Z"
        fill-rule="evenodd"
        fill="currentColor"
        fill-opacity="1"
        style="mix-blend-mode: passthrough"
      />
    </g>
  </g>
</svg>
