<svg
  xmlns="http://www.w3.org/2000/svg"
  xmlns:xlink="http://www.w3.org/1999/xlink"
  fill="none"
  version="1.1"
  width="20"
  height="20.000001907348633"
  viewBox="0 0 20 20.000001907348633"
>
  <defs>
    <clipPath id="master_svg0_2_04987">
      <rect x="0" y="0" width="20" height="20.000001907348633" rx="0" />
    </clipPath>
  </defs>
  <g clip-path="url(#master_svg0_2_04987)">
    <g>
      <path
        d="M6.54299070625,17.9029009296875C5.84153220625,18.3387359296875,4.92424010625,18.1133189296875,4.49819900625,17.403733929687498C4.29623080625,17.0668279296875,4.2334590062499995,16.6644889296875,4.32319880625,16.2820679296875L5.23111530625,12.4101939296875C5.253146206249999,12.3183729296875,5.22297860625,12.2218699296875,5.15257430625,12.1589429296875L2.18069881625,9.5693597296875C1.56340712625,9.0318598296875,1.49215715625,8.0918588296875,2.01986545625,7.4651928296875C2.27348637625,7.1632127296875,2.63726204625,6.9750991296875,3.03028250625,6.9426932296875L6.93049050625,6.6249842296875C7.01549100625,6.6179008296875,7.09153270625,6.5618591296875,7.12632370625,6.4766512296875L8.629032106250001,2.8014419696875C8.94215730625,2.0358167896875,9.81299110625,1.6701917196875,10.57278250625,1.9916502196875001C10.93514350625,2.1456461596875,11.22184660625,2.4367690096875,11.37028310625,2.8014419696875L12.87298990625,6.4764423296875C12.90778290625,6.5618591296875,12.98382490625,6.6181092296875,13.06882390625,6.6249847296875L16.96944990625,6.9429016296875C17.78736690625,7.0095682296875,18.39299190625,7.7331104296875,18.32819890625,8.5545692296875C18.29776390625,8.946578929687501,18.11489490625,9.311046129687501,17.81882490625,9.5697775296875L14.84694990625,12.1593629296875C14.77778190625,12.2195689296875,14.74653290625,12.3170689296875,14.76840590625,12.4104029296875L15.67632190625,16.2822789296875C15.86424090625,17.0833219296875,15.37632390625,17.8904039296875,14.57986490625,18.0835299296875C14.19631590625,18.1766169296875,13.79144690625,18.1116029296875,13.45632390625,17.9031119296875L10.11694810625,15.8281119296875C10.04523180625,15.7830979296875,9.95408060625,15.7830979296875,9.88236430625,15.8281119296875L6.54278090625,17.9031119296875L6.54299070625,17.9029009296875Z"
        fill="currentColor"
        fill-opacity="1"
        style="mix-blend-mode: passthrough"
      />
    </g>
  </g>
</svg>
