<svg
  xmlns="http://www.w3.org/2000/svg"
  xmlns:xlink="http://www.w3.org/1999/xlink"
  fill="none"
  version="1.1"
  width="256"
  height="88"
  viewBox="0 0 256 88"
>
  <defs>
    <filter
      id="master_svg0_2_43909"
      filterUnits="objectBoundingBox"
      color-interpolation-filters="sRGB"
      x="-0.09259259259259259"
      y="-0.3333333333333333"
      width="1.1851851851851851"
      height="1.8333333333333333"
    >
      <feFlood flood-opacity="0" result="BackgroundImageFix" />
      <feColorMatrix
        in="SourceAlpha"
        type="matrix"
        values="0 0 0 0 0 0 0 0 0 0 0 0 0 0 0 0 0 0 127 0"
      />
      <feOffset dy="4" dx="0" />
      <feGaussianBlur stdDeviation="5" />
      <feColorMatrix
        type="matrix"
        values="0 0 0 0 0 0 0 0 0 0 0 0 0 0 0 0 0 0 0.30000001192092896 0"
      />
      <feBlend mode="normal" in2="BackgroundImageFix" result="effect1_dropShadow" />
      <feBlend mode="normal" in="SourceGraphic" in2="effect1_dropShadow" result="shape" />
    </filter>
    <linearGradient
      x1="128"
      y1="16"
      x2="128"
      y2="64"
      gradientUnits="userSpaceOnUse"
      id="master_svg1_2_21103"
    >
      <stop offset="25.39946138858795%" stop-color="#FFFFFF" stop-opacity="1" />
      <stop offset="100%" stop-color="#FFCF87" stop-opacity="1" />
    </linearGradient>
  </defs>
  <g filter="url(#master_svg0_2_43909)">
    <path
      d="M30.464001,51.223999Q26.4000001,51.223999,23.7600002,49.32Q21.12,47.416,20.89600003,43.736000000000004L28.448,43.736000000000004Q28.6080008,45.688,30.176001,45.688Q30.752001,45.688,31.152,45.416Q31.552001,45.143999,31.552001,44.568000999999995Q31.552001,43.768,30.688001,43.271999Q29.8240004,42.776001,28,42.135999999999996Q25.8240004,41.367999999999995,24.4000001,40.632000000000005Q22.9760001,39.896,21.9520001,38.487999Q20.92800003,37.079998,20.96000004,34.872Q20.96000004,32.664,22.0960002,31.112000000000002Q23.2320001,29.559998999999998,25.2000003,28.759998Q27.1680002,27.959999,29.6320009,27.959999Q33.792001,27.959999,36.240002000000004,29.879998999999998Q38.688002,31.799999,38.816,35.287998L31.168,35.287998Q31.136001,34.327999,30.688001,33.911999Q30.240001,33.495998,29.6000004,33.495998Q29.1520004,33.495998,28.8640003,33.799999Q28.5760002,34.104,28.5760002,34.647999Q28.5760002,35.416,29.4240007,35.911999Q30.272,36.407999000000004,32.128,37.111999999999995Q34.272,37.911999,35.664001,38.647999Q37.056002,39.383999,38.08,40.695999Q39.104,42.007999,39.104,43.992001Q39.104,46.071999000000005,38.08,47.719999Q37.056002,49.368,35.104001,50.296001Q33.152,51.223999,30.464001,51.223999ZM60.704002,32.952L60.704002,51L53.599998,51L53.599998,48.248001Q52.768002,49.528,51.375999,50.327999Q49.984001,51.127998,48.063998999999995,51.127998Q44.959998999999996,51.127998,43.216,49.048Q41.472,46.968,41.472,43.416L41.472,32.952L48.544001,32.952L48.544001,42.519999999999996Q48.544001,43.799999,49.232,44.552Q49.92,45.304001,51.072001,45.304001Q52.256001,45.304001,52.928001,44.552Q53.599998,43.799999,53.599998,42.519999999999996L53.599998,32.952L60.704002,32.952ZM71.008003,35.416Q71.68,34.167998999999995,72.944,33.448Q74.208,32.727999,75.968002,32.727999Q78.08000200000001,32.727999,79.77600100000001,33.831998999999996Q81.47200000000001,34.935998999999995,82.448002,37.032Q83.424004,39.127998000000005,83.424004,41.976Q83.424004,44.823999,82.448002,46.92Q81.47200000000001,49.015999,79.77600100000001,50.119999Q78.08000200000001,51.223999,75.968002,51.223999Q74.208,51.223999,72.944,50.504002Q71.68,49.784,71.008003,48.535999L71.008003,51L63.903999,51L63.903999,27.32L71.008003,27.32L71.008003,35.416ZM76.22400300000001,41.976Q76.22400300000001,40.535999000000004,75.48800299999999,39.736000000000004Q74.752003,38.936001000000005,73.600002,38.936001000000005Q72.448002,38.936001000000005,71.712002,39.736000000000004Q70.976002,40.535999000000004,70.976002,41.976Q70.976002,43.416,71.712002,44.216Q72.448002,45.015999,73.600002,45.015999Q74.752003,45.015999,75.48800299999999,44.216Q76.22400300000001,43.416,76.22400300000001,41.976ZM93.696007,51.223999Q91.136002,51.223999,89.167999,50.391998Q87.200005,49.560001,86.048004,48.088001Q84.896004,46.615999,84.736,44.760000000000005L91.552002,44.760000000000005Q91.68,45.559999000000005,92.240005,45.944Q92.800003,46.327999,93.664001,46.327999Q94.208,46.327999,94.528,46.087998999999996Q94.848007,45.848,94.848007,45.495999999999995Q94.848007,44.888000000000005,94.176003,44.632000000000005Q93.504005,44.375999,91.904007,44.056Q89.952003,43.671999,88.688004,43.223999Q87.424004,42.776001,86.480003,41.688Q85.536003,40.599998,85.536003,38.68Q85.536003,37.015999,86.416,35.655998Q87.296005,34.296,89.024002,33.511999Q90.752007,32.727999,93.216003,32.727999Q96.864006,32.727999,98.928001,34.519999Q100.992004,36.312,101.408005,39.191998999999996L95.104004,39.191998999999996Q94.944,38.455999,94.432007,38.056Q93.920006,37.655998,93.056,37.655998Q92.512001,37.655998,92.224007,37.863997999999995Q91.936005,38.071999000000005,91.936005,38.487999Q91.936005,39.032,92.608002,39.304001Q93.280006,39.576,94.752007,39.863997999999995Q96.704002,40.247999,98.048004,40.728001Q99.392006,41.208,100.384003,42.375999Q101.376007,43.543999,101.376007,45.591999Q101.376007,47.191998999999996,100.448006,48.472Q99.520004,49.751999,97.776001,50.487999Q96.032005,51.223999,93.696007,51.223999ZM103.232002,41.976Q103.232002,39.16,104.400002,37.063998999999995Q105.568001,34.967999,107.664001,33.848Q109.760002,32.727999,112.448006,32.727999Q115.968002,32.727999,118.384003,34.712Q120.8,36.695999,121.44,40.216L113.920006,40.216Q113.504005,38.807998999999995,112.288002,38.807998999999995Q111.424004,38.807998999999995,110.928001,39.608000000000004Q110.432007,40.407999000000004,110.432007,41.976Q110.432007,43.543999,110.928001,44.344Q111.424004,45.143999,112.288002,45.143999Q113.504005,45.143999,113.920006,43.736000000000004L121.44,43.736000000000004Q120.8,47.256001,118.384003,49.240002Q115.968002,51.223999,112.448006,51.223999Q109.760002,51.223999,107.664001,50.104Q105.568001,48.984001,104.400002,46.888000000000005Q103.232002,44.792,103.232002,41.976ZM130.784,36.279999000000004Q131.872,34.712,133.44,33.768Q135.00799999999998,32.823999,136.704,32.823999L136.704,40.407999000000004L134.688,40.407999000000004Q132.672,40.407999000000004,131.728,41.111999999999995Q130.784,41.816,130.784,43.608000000000004L130.784,51L123.68,51L123.68,32.952L130.784,32.952L130.784,36.279999000000004ZM142.208,31.511999Q140.35201,31.511999,139.232,30.519999Q138.112,29.528,138.112,28.023998Q138.112,26.487999000000002,139.232,25.479999499999998Q140.35201,24.4719982,142.208,24.4719982Q144.03201,24.4719982,145.152,25.479999499999998Q146.272,26.487999000000002,146.272,28.023998Q146.272,29.528,145.152,30.519999Q144.03201,31.511999,142.208,31.511999ZM145.728,32.952L145.728,51L138.624,51L138.624,32.952L145.728,32.952ZM156.032,35.416Q156.70401,34.167998999999995,157.968,33.448Q159.23201,32.727999,160.992,32.727999Q163.104,32.727999,164.8,33.831998999999996Q166.496,34.935998999999995,167.472,37.032Q168.448,39.127998000000005,168.448,41.976Q168.448,44.823999,167.472,46.92Q166.496,49.015999,164.8,50.119999Q163.104,51.223999,160.992,51.223999Q159.23201,51.223999,157.968,50.504002Q156.70401,49.784,156.032,48.535999L156.032,59.639999L148.92801,59.639999L148.92801,32.952L156.032,32.952L156.032,35.416ZM161.248,41.976Q161.248,40.535999000000004,160.51201,39.736000000000004Q159.776,38.936001000000005,158.62401,38.936001000000005Q157.472,38.936001000000005,156.73601,39.736000000000004Q156,40.535999000000004,156,41.976Q156,43.416,156.73601,44.216Q157.472,45.015999,158.62401,45.015999Q159.776,45.015999,160.51201,44.216Q161.248,43.416,161.248,41.976ZM181.92,44.952L181.92,51L179.23199,51Q171.808,51,171.808,43.608000000000004L171.808,38.872L169.56799,38.872L169.56799,32.952L171.808,32.952L171.808,28.599998L178.912,28.599998L178.912,32.952L181.856,32.952L181.856,38.872L178.912,38.872L178.912,43.736000000000004Q178.912,44.375999,179.216,44.664Q179.52,44.952,180.224,44.952L181.92,44.952ZM188.224,31.511999Q186.368,31.511999,185.24799,30.519999Q184.12799,29.528,184.12799,28.023998Q184.12799,26.487999000000002,185.24799,25.479999499999998Q186.368,24.4719982,188.224,24.4719982Q190.04799,24.4719982,191.168,25.479999499999998Q192.28799,26.487999000000002,192.28799,28.023998Q192.28799,29.528,191.168,30.519999Q190.04799,31.511999,188.224,31.511999ZM191.74399,32.952L191.74399,51L184.64,51L184.64,32.952L191.74399,32.952ZM203.51999,51.223999Q200.79999,51.223999,198.62399,50.104Q196.448,48.984001,195.21599,46.888000000000005Q193.98399,44.792,193.98399,41.976Q193.98399,39.16,195.21599,37.063998999999995Q196.448,34.967999,198.62399,33.848Q200.79999,32.727999,203.51999,32.727999Q206.23999,32.727999,208.416,33.848Q210.592,34.967999,211.82399,37.063998999999995Q213.056,39.16,213.056,41.976Q213.056,44.792,211.82399,46.888000000000005Q210.592,48.984001,208.416,50.104Q206.23999,51.223999,203.51999,51.223999ZM203.51999,45.08Q204.51199,45.08,205.18399,44.296Q205.85599,43.511999,205.85599,41.976Q205.85599,40.439999,205.18399,39.655998Q204.51199,38.872,203.51999,38.872Q202.528,38.872,201.85599,39.655998Q201.18399,40.439999,201.18399,41.976Q201.18399,43.511999,201.84,44.296Q202.496,45.08,203.51999,45.08ZM227.936,32.823999Q231.04001,32.823999,232.784,34.903999Q234.528,36.983999,234.528,40.535999000000004L234.528,51L227.45599,51L227.45599,41.431999000000005Q227.45599,40.152,226.76801,39.4Q226.08,38.647999,224.92799,38.647999Q223.744,38.647999,223.07201,39.4Q222.39999,40.152,222.39999,41.431999000000005L222.39999,51L215.29601,51L215.29601,32.952L222.39999,32.952L222.39999,35.703998999999996Q223.23199,34.424,224.62399,33.623999Q226.01601,32.823999,227.936,32.823999Z"
      fill="url(#master_svg1_2_21103)"
      fill-opacity="1"
    />
  </g>
</svg>
