<svg
  xmlns="http://www.w3.org/2000/svg"
  xmlns:xlink="http://www.w3.org/1999/xlink"
  fill="none"
  version="1.1"
  width="18"
  height="18"
  viewBox="0 0 18 18"
>
  <g transform="matrix(0,1,-1,0,18,-18)">
    <path
      d="M33.928204,12.000001Q33.944572,12.028353,33.959051,12.057713Q33.973532,12.087074,33.986059,12.117318Q33.998587,12.147564,34.009108999999995,12.178564Q34.019632,12.209562,34.028105,12.241183Q34.036579,12.272804,34.042964999999995,12.304913Q34.049351,12.337019,34.053623,12.369475Q34.057898,12.401932,34.06004,12.434599Q34.06218,12.467264,34.062178,12.5Q34.06218,12.532738,34.06004,12.565405Q34.057898,12.598071,34.053623,12.630527Q34.049351,12.662985,34.042964999999995,12.695092Q34.036579,12.7272,34.028105,12.758821Q34.019632,12.790442,34.009108999999995,12.821442Q33.998587,12.85244,33.986059,12.882684Q33.973532,12.912929,33.959053,12.942289Q33.944574,12.971649,33.928205,13Q33.911837,13.028351,33.89365,13.055571Q33.875462999999996,13.08279,33.855534,13.108762Q33.835606,13.134733,33.81402,13.159346Q33.792437,13.183959,33.769287,13.207108Q33.74614,13.230256,33.721525,13.251842Q33.696913,13.273426,33.67094,13.293355Q33.644968,13.313284,33.617748,13.33147Q33.590528,13.349659,33.562178,13.366026Q33.533828,13.382395,33.504468,13.396874Q33.475107,13.411354,33.444862,13.423882Q33.414618000000004,13.43641,33.383618999999996,13.446933Q33.352619000000004,13.457456,33.320998,13.465928Q33.289377,13.474401,33.25727,13.480787Q33.225163,13.487173,33.192705000000004,13.491446Q33.160249,13.49572,33.127582000000004,13.497861Q33.094915,13.500001,33.062179,13.500001L20.9378223,13.500001Q20.8722789,13.500001,20.8072963,13.491446Q20.7423136,13.482891,20.6790035,13.465927Q20.6156936,13.448964,20.555139099999998,13.423882Q20.4945848,13.3988,20.4378223,13.366027Q20.3810601,13.333256,20.329061,13.293356Q20.2770619,13.253455,20.2307158,13.207108Q20.1843696,13.160763,20.144469,13.108763Q20.1045687,13.056765,20.0717969,13.000002Q20.0390253,12.943239,20.013943,12.882686Q19.9888605,12.822132,19.9718966,12.758821Q19.9549327,12.695511,19.9463775,12.630529Q19.9378223,12.565546,19.9378223,12.500002Q19.9378223,12.434459,19.9463775,12.369476Q19.9549327,12.304494,19.9718966,12.241184Q19.9888605,12.177874,20.013943,12.117319Q20.0390253,12.056765,20.0717969,12.000001L26.133975,1.5000001Q26.1503448,1.4716494,26.1685314,1.44443Q26.1867199,1.4172106,26.2066479,1.3912388Q26.2265759,1.365267,26.2481613,1.3406544Q26.269745800000003,1.3160417,26.2928944,1.2928934Q26.316041900000002,1.2697451,26.3406544,1.2481605Q26.365267799999998,1.2265757,26.3912392,1.2066469Q26.4172106,1.1867182,26.4444294,1.1685307Q26.4716492,1.1503432,26.5,1.1339748Q26.5283508,1.1176065,26.557712600000002,1.1031275Q26.5870724,1.0886484,26.617317200000002,1.0761206Q26.647562,1.0635929,26.678562200000002,1.0530701Q26.7095604,1.0425472,26.741181400000002,1.0340743Q26.7728024,1.0256015,26.8049107,1.019215Q26.837018,1.0128284,26.8694744,1.0085554Q26.901930800000002,1.0042825,26.934597,1.0021414Q26.967264200000002,1.0000002,27,1.0000001Q27.0327377,1.0000002,27.0654039,1.0021412Q27.0980701,1.0042824,27.130526500000002,1.0085553Q27.1629829,1.0128284,27.1950903,1.0192149Q27.2271986,1.0256015,27.258819600000002,1.0340743Q27.2904415,1.0425472,27.3214417,1.0530701Q27.3524399,1.0635929,27.3826847,1.0761207Q27.4129295,1.0886486,27.4422894,1.1031275Q27.471650099999998,1.1176065,27.5,1.1339748Q27.5283508,1.1503432,27.5555706,1.1685307Q27.5827904,1.1867182,27.6087627,1.2066469Q27.6347351,1.2265757,27.659347500000003,1.2481605Q27.68396,1.2697451,27.7071085,1.2928934Q27.730257,1.3160417,27.7518406,1.3406544Q27.773426100000002,1.365267,27.793355,1.3912387Q27.813283900000002,1.4172105,27.831470500000002,1.4444299Q27.849657999999998,1.4716494,27.8660259,1.5000001L33.928204,12.000001Z"
      fill="currentColor"
      fill-opacity="1"
    />
  </g>
</svg>
