<svg
  xmlns="http://www.w3.org/2000/svg"
  xmlns:xlink="http://www.w3.org/1999/xlink"
  fill="none"
  version="1.1"
  width="20"
  height="20.000001907348633"
  viewBox="0 0 20 20.000001907348633"
>
  <defs>
    <clipPath id="master_svg0_2_8922">
      <rect x="0" y="0" width="20" height="20.000001907348633" rx="0" />
    </clipPath>
  </defs>
  <g clip-path="url(#master_svg0_2_8922)">
    <g>
      <path
        d="M9.159926428125,3.31123643875C9.732426628125,2.87123642875,10.412426928125,2.51498640875,11.138676328125,2.82123642875C11.858676328125,3.12623637875,12.088676328125,3.85873676875,12.188677328125,4.5799864687500005C12.291176328125,5.3187365687499994,12.291176328125,6.33623666875,12.291176328125,7.60123636875L12.291176328125,12.39748666875C12.291176328125,13.66248696875,12.291176328125,14.67998796875,12.189926328125,15.41998696875C12.089926328125,16.13998696875,11.858677328125,16.87248596875,11.139927328125,17.17748596875C10.412426928125,17.48498496875,9.732427628125,17.12748596875,9.159927328125,16.68748796875C8.573676628125,16.237486968749998,7.831176728125,15.47873696875,6.956176728125,14.58623796875C6.506177428125,14.12623596875,6.207427028125,13.90373796875,5.906177028125,13.77998696875C5.601177228125,13.65498696875,5.232427128125,13.60123696875,4.588677128125,13.60123696875C4.031177028125001,13.60123696875,3.532427028125,13.60123696875,3.154927028125,13.56123696875C2.759926828125,13.51998696875,2.392426928125,13.43123596875,2.061177028125,13.20498796875C1.4324268681249999,12.77498696875,1.191176908125,12.14623736875,1.098676875125,11.56748766875C1.032425975425,11.13748736875,1.039925956625,10.663736368750001,1.046175957225,10.282485968749999L1.046175957225,9.71748636875C1.039925956625,9.33623646875,1.033675955625,8.86248586875,1.101175979125,8.42998646875C1.192426028125,7.85248616875,1.433675978125,7.22373626875,2.063676128125,6.79373646875C2.393676128125,6.5687365687499994,2.7611761281250002,6.47873636875,3.156176128125,6.43748636875C3.533676428125,6.39873666875,4.0311763281249995,6.39873666875,4.588676228125,6.39873666875C5.233676428125,6.39873666875,5.602426528125,6.34498686875,5.906176528125,6.21998686875C6.208676328125,6.09498686875,6.506176028125,5.87248686875,6.956176328125,5.41373686875C7.831176328125,4.52123676875,8.574926328124999,3.76123686875,9.161176728125,3.31123679875L9.159926428125,3.31123643875ZM13.662426328125,6.83748676875C14.028425328125,6.55900076875,14.550807328125,6.6294708687499995,14.829925328125,6.99498656875C15.459928328125,7.81998636875,15.833677328125,8.86748646875,15.833677328125,9.999986668750001C15.833677328125,11.13123706875,15.459928328125,12.17873666875,14.829925328125,13.00498796875C14.558482328125,13.39369496875,14.017970328125,13.47812196875,13.640916328125,13.19070596875C13.263864328125,12.90329196875,13.202044328125,12.35972976875,13.504927328125,11.99498746875C13.916178328125,11.45498756875,14.167426328125,10.76248736875,14.167426328125,9.999986668750001C14.167426328125,9.23748686875,13.916178328125,8.54498626875,13.504927328125,8.004986768750001C13.226164328125,7.63931466875,13.296069328125,7.11698816875,13.661177328125,6.83748676875L13.662426328125,6.83748676875Z"
        fill="currentColor"
        fill-opacity="1"
        style="mix-blend-mode: passthrough"
      />
    </g>
    <g>
      <path
        d="M17.28133393125,5.26996308421875C16.97621013125,4.90659369521875,16.42977756125,4.87076148421875,16.07981723125,5.19117395421875C15.72985534325,5.51158642421875,15.71746978125,6.05905237421875,16.05258332125,6.39496317421875C16.96758433125,7.39621327421875,17.50008393125,8.649963174218751,17.50008393125,9.99996327421875C17.50008393125,11.349963674218749,16.96758433125,12.60371307421875,16.05258332125,13.60371497421875C15.76541290025,13.94570827421875,15.79869689925,14.45324037421875,16.12806857125,14.75480077421875C16.45744175125,15.05636407421875,16.96593483125,15.04486207421875,17.28133393125,14.72871497421875C18.45133373125,13.45246507421875,19.16633483125,11.80621337421875,19.16633483125,9.999964274218751C19.16633483125,8.19371387421875,18.45133543125,6.54746377421875,17.28133393125,5.26996308421875Z"
        fill="currentColor"
        fill-opacity="1"
        style="mix-blend-mode: passthrough"
      />
    </g>
  </g>
</svg>
