<svg
  xmlns="http://www.w3.org/2000/svg"
  xmlns:xlink="http://www.w3.org/1999/xlink"
  fill="none"
  version="1.1"
  width="24"
  height="24.000001907348633"
  viewBox="0 0 24 24.000001907348633"
>
  <defs>
    <clipPath id="master_svg0_2_22469">
      <rect x="0" y="0" width="24" height="24.000001907348633" rx="0" />
    </clipPath>
  </defs>
  <g clip-path="url(#master_svg0_2_22469)">
    <g>
      <path
        d="M22.500002,6.0000001L22.500002,7.500000200000001L1.5,7.500000200000001L1.5,6.0000001C1.5,5.17500007,2.17500007,4.5,3.0000001000000003,4.5L21.000002,4.5C21.825003,4.5,22.500002,5.17500007,22.500002,6.0000001ZM22.500002,9L22.500002,18C22.500002,18.825,21.825003,19.5,21.000002,19.5L3.0000001000000003,19.5C2.17500007,19.5,1.5,18.825,1.5,18L1.5,9L22.500002,9ZM6,15.000001L3.0000001000000003,15.000001L3.0000001000000003,15.750001L6,15.750001L6,15.000001ZM9,13.5L3.0000001000000003,13.5L3.0000001000000003,14.250001L9,14.250001L9,13.5Z"
        fill="currentColor"
        fill-opacity="1"
        style="mix-blend-mode: passthrough"
      />
    </g>
  </g>
</svg>
