<svg
  xmlns="http://www.w3.org/2000/svg"
  xmlns:xlink="http://www.w3.org/1999/xlink"
  fill="none"
  version="1.1"
  width="20"
  height="20"
  viewBox="0 0 20 20"
>
  <defs>
    <clipPath id="master_svg0_2_12469"><rect x="0" y="0" width="20" height="20" rx="0" /></clipPath>
    <clipPath id="master_svg1_2_12687"><rect x="0" y="0" width="20" height="20" rx="0" /></clipPath>
  </defs>
  <g clip-path="url(#master_svg0_2_12469)">
    <g clip-path="url(#master_svg1_2_12687)">
      <g>
        <path
          d="M5.338376163125,6.328219295859375Q5.239939273125,6.229782345859375,5.186665593125,6.101168335859375Q5.133391913125,5.972554315859375,5.133391913125,5.833343505859375Q5.133391973125,5.764413311859375,5.146839563125,5.696807595859375Q5.160287203125,5.629201875859375,5.186665653125,5.565518675859375Q5.2130440431250005,5.501835465859375,5.251339673125,5.444522115859375Q5.289635183125,5.387208755859375,5.338376193125,5.338467745859375Q5.387117203125,5.289726735859375,5.444430593125,5.251431165859375Q5.501743913125,5.2131355958593755,5.565427123125,5.186757205859375Q5.629110323125,5.160378755859375,5.696716043125,5.146931115859375Q5.764321759125,5.133483525859375,5.833251953125,5.133483465859375Q5.972462763125,5.133483465859375,6.101076783125,5.186757145859375Q6.229690793125,5.240030825859375,6.328127743125,5.338467715859375L6.328226653125,5.338368805859375L14.661560053125,13.671701905859376L14.661460853125,13.671801105859375Q14.759897253125,13.770237905859375,14.813171353125,13.898851405859375Q14.866444553125,14.027465805859375,14.866444553125,14.166676505859375Q14.866443653125,14.235607105859374,14.852995853125,14.303212205859374Q14.839548153125,14.370817205859375,14.813169453125,14.434500705859374Q14.786790853125,14.498184205859374,14.748495053125,14.555497205859375Q14.710200353125,14.612810105859374,14.661459953125,14.661551505859375Q14.612718553125,14.710291905859375,14.555405653125,14.748587605859376Q14.498092653125,14.786882405859375,14.434409153125,14.813261005859376Q14.370725653125,14.839639705859375,14.303120653125,14.853087405859375Q14.235515553125,14.866535205859375,14.166584953125,14.866536105859375Q14.027374253125,14.866536105859375,13.898759853125,14.813262905859375Q13.770146353125,14.759988805859376,13.671709553125,14.661552405859375L13.671610353125,14.661651605859374L5.338277253125,6.328318205859375L5.338376163125,6.328219295859375Z"
          fill-rule="evenodd"
          fill="currentColor"
          fill-opacity="1"
          style="mix-blend-mode: passthrough"
        />
      </g>
      <g>
        <path
          d="M14.661460853125,6.3282189358593754Q14.759897253125,6.229782045859375,14.813171353125,6.101168125859375Q14.866444553125,5.972554205859375,14.866444553125,5.833343505859375Q14.866443653125,5.764413311859375,14.852995853125,5.696807595859375Q14.839548153125,5.629201875859375,14.813169453125,5.565518675859375Q14.786790853125,5.501835465859375,14.748495053125,5.444522115859375Q14.710200353125,5.387208755859375,14.661459953125,5.338467745859375Q14.612718553125,5.289726735859375,14.555405653125,5.251431165859375Q14.498092653125,5.2131355958593755,14.434409153125,5.186757205859375Q14.370725653125,5.160378755859375,14.303120653125,5.146931115859375Q14.235515553125,5.133483525859375,14.166584953125,5.133483465859375Q14.027373353125,5.133483525859375,13.898759853125,5.186757085859375Q13.770145453125,5.240030765859375,13.671709053125,5.338467655859375L13.671610353125,5.338368805859375L5.338277253125,13.671701905859376L5.338376103125,13.671800605859374Q5.239939213125,13.770237005859375,5.186665593125,13.898851405859375Q5.133391973125,14.027464905859375,5.133391913125,14.166676505859375Q5.133391973125,14.235607105859374,5.146839563125,14.303212205859374Q5.160287203125,14.370817205859375,5.186665653125,14.434500705859374Q5.2130440431250005,14.498184205859374,5.251339673125,14.555497205859375Q5.289635183125,14.612810105859374,5.338376193125,14.661551505859375Q5.387117203125,14.710291905859375,5.444430593125,14.748587605859376Q5.501743913125,14.786882405859375,5.565427123125,14.813261005859376Q5.629110323125,14.839639705859375,5.696716043125,14.853087405859375Q5.764321759125,14.866535205859375,5.833251953125,14.866536105859375Q5.972462653125,14.866536105859375,6.101076573125,14.813262905859375Q6.229690493125,14.759988805859376,6.3281273831250004,14.661552405859375L6.328226653125,14.661651605859374L14.661560053125,6.328318205859375L14.661460853125,6.3282189358593754Z"
          fill-rule="evenodd"
          fill="currentColor"
          fill-opacity="1"
          style="mix-blend-mode: passthrough"
        />
      </g>
    </g>
  </g>
</svg>
